<?xml version="1.0" encoding="utf-8"?>
<!-- Generator: Adobe Illustrator 19.0.0, SVG Export Plug-In . SVG Version: 6.00 Build 0)  -->
<svg version="1.1" id="layer" xmlns="http://www.w3.org/2000/svg" xmlns:xlink="http://www.w3.org/1999/xlink" x="0px" y="0px"
	 viewBox="-153 -46 652 652" style="enable-background:new -153 -46 652 652;" xml:space="preserve">
<style type="text/css">
	.st0{fill:#A81524;}
</style>
<path class="st0" d="M-126.5,289.3c6.4-1.7,12.9-2.3,19.6-1.6c19.3,2.2,36,18,39.2,37.1c1.3,7.9,0.8,16.2-1.2,21.4
	c-2.1-4.5-4-9.3-6.4-13.8c-11.1-20.3-27.6-34.4-49.3-42.4c-0.6-0.2-1.2-0.3-1.8-0.4C-126.5,289.6-126.5,289.3-126.5,289.3z
	 M-50.9,214.1c1.6,4,2.9,8.3,4.9,12.1C-34.9,247.7-17.8,262.7,5,271c0.3,0.1,0.6,0.2,0.9,0.4c0,0.2,0,0.4,0.1,0.6
	c-3.6,0.5-7.2,1.4-10.8,1.6c-24.9,1.2-45.6-16.8-48.1-41.5c-0.6-6.1,0.2-12,1.8-17.9C-51.1,214.1-51,214.1-50.9,214.1z
	 M-126.5,271.3c5.5-2.4,11.4-4.4,16.6-7.4c19.2-11.1,32.5-27.2,40.2-48c0.2-0.6,0.3-1.2,0.5-1.8h0.4c0.6,4.9,1.8,9.8,1.8,14.7
	c0.1,22.3-18,42.2-40.2,44.5c-6.2,0.7-12.3,0.3-18.3-1.5c-0.3-0.1-0.6-0.1-0.9-0.1C-126.5,271.7-126.5,271.3-126.5,271.3z
	 M232.5,335v-4.3h11.9V230.2h-11.9v-4.3h2.1c28.6,0,57.1,0,85.7,0c9.9,0,19.5,1.6,28.2,6.9c9.8,6,13.6,17.6,9.1,27.8
	c-2.3,5.3-6.5,8.7-11.6,11.1c-6.5,3.1-13.5,4.3-20.7,4.7c-0.9,0-1.8,0.1-2.7,0.2v3c2.5,0.2,5.1,0.4,7.7,0.6
	c6.5,0.5,12.7,1.7,18.5,4.7c8.2,4.2,13,10.7,13.3,20.1c0.3,9.9-3,18.1-11.9,23.4c-6.4,3.8-13.6,5.4-20.9,6
	c-6.1,0.5-12.3,0.8-18.5,0.8c-25.3,0.1-50.6,0-76,0H232.5L232.5,335z M293.5,330.6c2.5,0,4.9,0.1,7.2,0c5-0.4,8.3-3.1,9.6-7.9
	c0.6-2.2,0.9-4.5,0.9-6.8c0.1-6.9,0.1-13.7,0-20.6c0-1.6-0.1-3.3-0.4-4.9c-0.6-3.6-2-6.7-5.5-8.5c-3.8-1.9-7.8-1.6-12-1.5
	C293.5,297.2,293.5,313.8,293.5,330.6L293.5,330.6z M293.6,230.2v45.7c2.7,0,5.2,0.2,7.8,0c4.1-0.3,7.5-3.6,7.7-8.6
	c0.4-9.5,0.3-19.1,0.1-28.6c-0.1-3.4-2.1-6-5.3-7.4C300.5,229.9,297.1,230,293.6,230.2L293.6,230.2z M449.8,304.4h-5
	c-0.6-2.5-1-5.1-1.7-7.6c-1.7-5.5-4.8-9.9-9.8-12.9c-2.7-1.5-5.5-2.2-8.8-1.9v48.2c13.3,1.9,24.8-0.7,32.9-12.5
	c4.7-6.8,8-14.3,10.5-22.1c0.6-1.8,1.3-2.7,3.3-2.4c0.7,0.1,1.4,0,2.4,0c-0.3,13.8-0.5,27.6-0.8,41.5H364.2v-4.2h11.6V230.1h-11.6
	V226h107.1c0.3,12.6,0.6,25.2,0.8,38H467c-1.5-4-2.8-8-4.6-11.8c-2.9-6.5-6.8-12.2-12.5-16.6c-4.8-3.7-10.2-5.5-16.3-5.5
	c-3,0-6.1,0-9.2,0v47.6c6,0.6,10.6-2,14.3-6.4c3.7-4.2,5.2-9.4,5.9-14.9h5.2C449.8,272.4,449.8,288.4,449.8,304.4z M126.7,284v-2.5
	v-41.6c0-5.4-2.5-8.5-7.9-9.4c-2-0.3-4-0.4-6.1-0.5V226h32.9v4.1c-1.7,0-3.3,0-5,0c-4.2,0.1-6.4,1.7-7.2,5.9
	c-0.5,2.5-0.7,5.2-0.7,7.8c0,29.6,0,59.2,0,88.7v2.4c-0.7,0-1.3,0.1-1.9,0.1c-7.8,0-15.5,0-23.3,0c-1.3,0-2-0.4-2.8-1.5
	c-20.6-28-41.2-55.9-61.8-83.8c-0.4-0.5-0.8-1-1.6-1.4v2c0,22-0.1,44,0.1,66c0,3.1,0.7,6.3,1.7,9.3c1.1,3.4,3.9,5,7.5,5h4.9v4.2
	H22.8c-0.1-0.2-0.1-0.4-0.2-0.6c-0.3-3.6-0.3-3.6,3.3-3.6c4.1,0,6.7-1.5,8-5.5c1-3,1.6-6.2,1.6-9.3c0.1-25.3,0.1-50.5,0-75.8
	c0-1-0.4-2.1-1-2.9c-0.8-1.3-1.9-2.6-2.9-3.8c-2-2.3-4.5-3.8-7.7-3.5c-0.3,0-0.5,0-0.8,0c-0.1,0-0.2-0.1-0.5-0.2v-3.9h2.1
	c18.9,0,37.8,0,56.7,0c1.5,0,2.3,0.5,3.1,1.6c13.5,18.3,27,36.5,40.5,54.7C125.6,282.6,126,283.1,126.7,284L126.7,284z M163.6,330.7
	V230.1h-11.8V226h73.6v4.1h-11.9v100.6h12v4.2h-73.5c-0.1-0.1-0.2-0.2-0.2-0.3c-0.3-3.8-0.3-3.8,3.5-3.8H163.6z M-51.1,346.4
	c-4.3-12.2-2.8-31.4,11-45.5c13.3-13.5,32.2-16.1,46-11.5C-21.9,299.7-40.8,318.7-51.1,346.4z M-43.5,280.4
	c0,9.2-7.4,16.6-16.6,16.6c-9.2,0-16.7-7.5-16.7-16.6c0-9.1,7.5-16.6,16.6-16.6C-50.9,263.8-43.5,271.2-43.5,280.4z"/>
</svg>
