<?xml version="1.0" encoding="utf-8"?>
<!-- Generator: Adobe Illustrator 19.2.1, SVG Export Plug-In . SVG Version: 6.00 Build 0)  -->
<svg version="1.1" id="layer" xmlns="http://www.w3.org/2000/svg" xmlns:xlink="http://www.w3.org/1999/xlink" x="0px" y="0px"
	 viewBox="0 0 652 652" style="enable-background:new 0 0 652 652;" xml:space="preserve">
<style type="text/css">
	.st0{fill:#FF5000;}
	.st1{fill:#002E6D;}
	.st2{fill:#073267;}
</style>
<path class="st0" d="M489.8,260.5c-0.6-1.1-1.4-1.9-2.5-2.4c-1.1-0.6-2.1-0.8-3.2-0.8c-1.1,0-2.2,0.3-3.2,0.8
	c-1,0.6-1.9,1.4-2.5,2.4c-0.6,1-0.9,2.2-0.9,3.3c0,1.1,0.3,2.2,0.9,3.3c0.6,1,1.4,1.9,2.4,2.4c1,0.6,2.1,0.9,3.3,0.9
	c1.1,0,2.2-0.3,3.3-0.9c1-0.6,1.9-1.4,2.4-2.4c0.6-1,0.9-2.1,0.9-3.3C490.7,262.7,490.4,261.6,489.8,260.5 M488.9,266.6
	c-0.5,0.9-1.2,1.5-2,2c-0.9,0.5-1.8,0.7-2.7,0.7c-1,0-1.9-0.2-2.7-0.7c-0.9-0.5-1.6-1.2-2-2c-0.5-0.9-0.7-1.8-0.7-2.7
	c0-1,0.2-1.9,0.7-2.8c0.5-0.9,1.2-1.6,2.1-2c0.9-0.5,1.8-0.7,2.7-0.7c0.9,0,1.8,0.2,2.7,0.7c0.9,0.5,1.6,1.2,2.1,2
	c0.5,0.9,0.7,1.8,0.7,2.8C489.6,264.8,489.4,265.7,488.9,266.6"/>
<path class="st0" d="M485.3,264.7c-0.1-0.1-0.4-0.3-0.6-0.4c0.6,0,1.1-0.3,1.5-0.6c0.4-0.4,0.6-0.8,0.6-1.4c0-0.4-0.1-0.7-0.3-1
	c-0.2-0.3-0.5-0.6-0.9-0.7c-0.4-0.1-1-0.2-1.8-0.2h-2.4v7.1h1.1v-3h0.7c0.4,0,0.7,0.1,0.9,0.2c0.3,0.2,0.7,0.8,1.2,1.7l0.6,1.1h1.4
	l-0.9-1.4C485.9,265.4,485.6,265,485.3,264.7 M483.8,263.5h-1.4v-2.1h1.3c0.6,0,0.9,0,1.2,0.1c0.2,0.1,0.4,0.2,0.5,0.4
	c0.1,0.2,0.2,0.4,0.2,0.6c0,0.3-0.1,0.6-0.4,0.8C484.9,263.4,484.5,263.5,483.8,263.5 M22.5,259.1h26v57.4c0,4.3,3.5,7.8,7.8,7.8H72
	c4.3,0,7.8-3.5,7.8-7.8v-57.4h26v56.7c0,14.9-12.2,27.1-27.1,27.1H49.6c-14.9,0-27.1-12.2-27.1-27.1V259.1z M84.7,249.5H70.9v-12.3
	h13.8V249.5z M57.4,249.5H43.6v-12.3h13.8V249.5z M217.9,259.1h-24.2v65l-28.4-65h-43.7v83.8H146v-64.7l28.4,64.7h43.5V259.1z
	 M302.4,259.1h-76.4v19.8h24.8v64h25.7v-64h26V259.1z M380.4,325.5h-44.8v-16.9H377v-15.3h-41.4v-16h44.8v-18.2H311v83.9h69.4V325.5
	z M449.6,284.5h24.3c0,0,1.4-24.4-18.8-25.4h-41.1c0,0-17.9,0.7-18.6,17.7v14.5c0,0,0.2,16.3,21.7,16.9l22.9,1.3
	c0,0,11.7-1,11.4,7.8c-0.2,8.8-7,8.6-7,8.6l-18.2,0.2c0,0-8.1-0.6-7.7-10h-24.8c0,0,0.1,10.3,3.1,16.1c3,5.7,8.1,10.6,20.3,10.7
	c12.2,0.1,33.4,0,33.4,0s22-0.5,25.3-15.7v-18.8c0,0,2.3-11.5-17.9-14.9c0,0-23.1-1.5-29.4-1.8c-6.3-0.3-9.7-3.4-9.6-7.4
	c0.1-3.9,0.5-7.9,11.9-7.8C442.3,276.5,448.5,274.3,449.6,284.5"/>
<path class="st1" d="M502.5,282.7c0,0,13.6-2.4,28.1,7.9c4.1,2.9,8.7,5.2,13.5,6.9c5.3,1.9,12,3.6,18.4,3.5v-24
	c-13.9,0.4-28-9.2-28-9.2c-15.8-10.1-32-9.1-32-9.1V282.7z"/>
<path class="st0" d="M562.5,324.9c0,0,13.6-2.4,28.1,7.9c4.1,2.9,8.7,5.2,13.5,6.9c5.3,1.9,12,3.6,18.4,3.5v-24
	c-13.9,0.4-28-9.2-28-9.2c-15.8-10.1-32-9.1-32-9.1V324.9z"/>
<path class="st2" d="M44.2,374c0,2-1,4-3.5,5.1c3.1,0.9,4.2,4.2,4.2,5.9c0,5.9-4.4,7.8-9.9,7.8H22.5v-26.5h12.6
	C40.3,366.3,44.2,368.6,44.2,374 M27.4,376.9h7.7c3.1,0,4.2-1.3,4.2-2.8c0-1.2-1-3.3-4.2-3.3h-7.7V376.9z M27.4,388.1h7.7
	c2,0,5-0.7,5-3.2c0-2.4-2.9-3.6-5-3.6h-7.7V388.1z M49.5,374.1v9.8c0,5.8,3.3,9.2,7.7,9.2c2.6,0,4.4-0.9,6.3-2.8l0.3,2.5H68v-18.7
	h-4.6v9.6c0,2.8-1.9,5.2-4.8,5.2c-3,0-4.5-2.2-4.5-5v-9.8H49.5z M78.8,368.8c0,3.6-5.5,3.6-5.5,0C73.3,365.2,78.8,365.2,78.8,368.8
	 M73.7,392.8h4.6V374h-4.6V392.8z M88.4,366.3h-4.6v26.5h4.6V366.3z M113.6,366.3v26.5h-4.3l-0.3-2.6c-1.4,2.2-3.8,3-6,3
	c-5.5,0-9.6-3.6-9.6-9.8c0-6.4,4.1-9.8,9.5-9.8c2,0,5,1.1,6.1,3v-10.3H113.6z M97.9,383.4c0,3.3,2.4,5.5,5.3,5.5
	c2.9,0,5.4-2.1,5.4-5.5c0-3.3-2.5-5.5-5.4-5.5C100.3,378,97.9,380.1,97.9,383.4 M123.7,368.8c0,3.6-5.5,3.6-5.5,0
	C118.2,365.2,123.7,365.2,123.7,368.8 M118.7,392.8h4.6V374h-4.6V392.8z M146.9,392.8V383c0-5.9-3.5-9.2-7.9-9.2
	c-2.4,0-4.2,0.9-6.1,2.8l-0.3-2.5h-4.1v18.7h4.6v-9.6c0-2.8,1.9-5.2,4.8-5.2c3,0,4.5,2.2,4.5,5v9.8H146.9z M166.2,372.2l3.4,2.6
	l-2.1,2.7c1.4,1.6,2,3.5,2,5.5c0,2.3-0.9,5.6-3.9,7c3.1,1.6,3.9,3.8,3.9,6.2c0,5.2-3.9,8.3-9.4,8.3s-9.5-3.3-9.5-8.3h4.6
	c0,2.4,2.2,4,4.9,4c2.7,0,4.7-1.4,4.7-4c0-2.6-2.4-3.7-4.7-3.7c-5.8,0-9.5-3.6-9.5-9.4c0-5.8,4.2-9.5,9.5-9.5c1.5,0,3,0.2,4.3,1.1
	L166.2,372.2z M155.2,383c0,3.3,2.2,5.2,4.9,5.2c2.7,0,4.9-2,4.9-5.2c0-3.2-2.2-5.3-4.9-5.3C157.4,377.7,155.2,379.7,155.2,383
	 M193.7,392.8h5v-22h8.4v-4.6h-21.8v4.6h8.4V392.8z M207.1,374.1v18.7h4.6v-9.9c0-3.5,2.2-4.7,4.7-4.7c1.5,0,2.4,0.4,3.3,1.2l2.1-4
	c-1-1-2.9-1.8-4.8-1.8c-1.9,0-3.8,0.3-5.3,2.7l-0.3-2.2H207.1z M222.6,374.1v9.8c0,5.8,3.3,9.2,7.7,9.2c2.6,0,4.4-0.9,6.3-2.8
	l0.3,2.5h4.1v-18.7h-4.6v9.6c0,2.8-1.9,5.2-4.8,5.2c-3,0-4.5-2.2-4.5-5v-9.8H222.6z M258.3,376c-2.2-1.9-4.4-2.5-7.3-2.5
	c-3.4,0-7.9,1.5-7.9,5.8c0,4.2,4.2,5.5,7.7,5.8c2.7,0.2,3.7,0.7,3.7,2c0,1.4-1.6,2.3-3.4,2.2c-2.1,0-5.1-1.1-6.4-2.6l-2.3,3.3
	c2.7,2.8,5.7,3.3,8.6,3.3c5.3,0,8-2.8,8-6.1c0-5-4.5-5.8-8-6c-2.4-0.2-3.5-0.8-3.5-2.1c0-1.2,1.2-1.9,3.4-1.9c1.8,0,3.3,0.4,4.6,1.7
	L258.3,376z M263.5,369.3v4.8H260v4h3.5v8.1c0,4.7,2.7,7,6.7,6.8c1.4,0,2.5-0.3,3.8-0.8l-1.3-3.9c-0.7,0.3-1.5,0.6-2.2,0.6
	c-1.4,0-2.4-0.9-2.4-2.7v-8.1h5.2v-4h-5.2v-5.3L263.5,369.3z M305.5,376c-2.2-1.9-4.4-2.5-7.3-2.5c-3.4,0-7.9,1.5-7.9,5.8
	c0,4.2,4.2,5.5,7.7,5.8c2.7,0.2,3.7,0.7,3.7,2c0,1.4-1.6,2.3-3.4,2.2c-2.1,0-5.1-1.1-6.4-2.6l-2.3,3.3c2.7,2.8,5.7,3.3,8.6,3.3
	c5.3,0,8-2.8,8-6.1c0-5-4.5-5.8-8-6c-2.4-0.2-3.5-0.8-3.5-2.1c0-1.2,1.2-1.9,3.4-1.9c1.8,0,3.3,0.4,4.6,1.7L305.5,376z M313.7,368.8
	c0,3.6-5.5,3.6-5.5,0C308.2,365.2,313.7,365.2,313.7,368.8 M308.7,392.8h4.6V374h-4.6V392.8z M335.9,392.8V383
	c0-5.9-3.5-9.2-7.9-9.2c-2.4,0-4.2,0.9-6.1,2.8l-0.3-2.5h-4.1v18.7h4.6v-9.6c0-2.8,1.9-5.2,4.8-5.2c3,0,4.5,2.2,4.5,5v9.8H335.9z
	 M352.5,387.4c-1.1,1.1-2.6,1.6-4.1,1.6c-2.9,0-5.3-1.9-5.3-5.5c0-3.3,2.3-5.5,5.4-5.5c1.3,0,2.7,0.5,3.7,1.5l2.9-3.1
	c-2.1-2-4.1-2.8-6.7-2.8c-5.4,0-9.9,3.3-9.9,9.9c0,6.6,4.5,9.9,9.9,9.9c2.8,0,5-0.8,7.2-3L352.5,387.4z M362,385.1
	c0.3,2.3,2.3,4,5.6,4c1.7,0,3.9-0.6,5-1.7l3,2.9c-2,2-5.2,3-8,3c-6.5,0-10.3-4-10.3-10c0-5.7,3.9-9.8,9.9-9.8
	c6.3,0,10.2,3.9,9.4,11.6H362z M372.1,381.3c-0.3-2.4-2.2-3.6-4.9-3.6c-2.5,0-4.6,1.2-5.2,3.6H372.1z M386.9,392.8h12.7v-4.3H396
	v-22.5h-9.2v4.6h4.2v17.9h-4V392.8z M419.6,384.6v-4c-1.2,1.8-4.1,2.8-6.2,2.8c-5.4,0-11-2.3-11-8.9c0-5.9,5.7-8.9,11.1-8.9
	c5.5,0,11.2,2.9,11.2,8.9v10c0,6-5.5,8.7-11,8.7c-5.8,0-11.1-2.3-11.1-7.9h5c0,2.4,3.1,3.5,6,3.5c3,0,6.1-1.6,6.1-4.5V384.6z
	 M407.3,374.5c0,2.9,2.7,4.5,6,4.5c3.4,0,6.2-1.5,6.2-4.5c0-2.9-2.9-4.4-6.1-4.4C410.2,370.1,407.3,371.5,407.3,374.5 M432.9,374.3
	v4c1.2-1.8,4.1-2.8,6.2-2.8c5.4,0,11,2.3,11,8.9c0,5.9-5.7,8.9-11.1,8.9c-5.5,0-11.1-2.9-11.1-8.9v-10c0-6,5.5-8.7,11-8.7
	c5.8,0,11,2.3,11,7.9h-5c0-2.4-3-3.5-5.8-3.5c-3,0-6.1,1.6-6.1,4.5V374.3z M445.1,384.4c0-2.9-2.7-4.5-6-4.5c-3.4,0-6.2,1.5-6.2,4.5
	c0,2.9,2.9,4.4,6.1,4.4C442.2,388.8,445.1,387.3,445.1,384.4 M457,379.1c-2.3-1.2-3.4-3.2-3.4-5.3c0-5.4,5-8.1,10.8-8.1
	c5.8,0,11,2.8,11,8.1c0,1.8-1,4-3.4,5c2.7,1.1,4,3.9,4,6c0.1,6.2-5.6,8.7-11.6,8.7c-5.8,0-11.6-2.4-11.5-8.7
	C453,382.7,454.2,380.2,457,379.1 M458.2,384.9c0,2.1,2.2,4,6.3,4c4.1,0,6.3-1.9,6.3-4c0-2.6-2.9-3.8-6.3-3.8
	C461.3,381,458.2,382.2,458.2,384.9 M464.4,377.4c3.1,0,5.6-1.4,5.7-3.7c0.1-2.3-2.3-3.8-5.7-3.8c-3.8,0-5.7,1.9-5.6,3.8
	C458.9,376,461.5,377.4,464.4,377.4"/>
</svg>
