<svg xmlns="http://www.w3.org/2000/svg" xmlns:xlink="http://www.w3.org/1999/xlink" width="2477" zoomAndPan="magnify" viewBox="0 0 1857.75 818.24998" height="1091" preserveAspectRatio="xMidYMid meet" version="1.0"><defs><clipPath id="07daedff14"><path d="M 5.460938 5.324219 L 395 5.324219 L 395 530.984375 L 5.460938 530.984375 Z M 5.460938 5.324219 " clip-rule="nonzero"/></clipPath><clipPath id="23ba78a3a9"><path d="M 387.546875 109.109375 C 379.125 107.082031 370.542969 105.523438 362.042969 104.464844 L 357.898438 103.957031 L 333.375 5.328125 L 308.847656 103.945312 L 304.703125 104.457031 C 279.769531 107.550781 255.675781 114.65625 233.089844 125.59375 C 214.867188 134.40625 197.90625 145.574219 182.601562 158.828125 L 164.453125 140.6875 L 140.828125 164.324219 L 158.96875 182.464844 C 145.722656 197.777344 134.554688 214.730469 125.730469 232.949219 C 114.804688 255.546875 107.691406 279.640625 104.59375 304.566406 L 104.085938 308.710938 L 5.46875 333.234375 L 104.085938 357.757812 L 104.59375 361.90625 C 107.691406 386.839844 114.792969 410.933594 125.730469 433.519531 C 134.542969 451.730469 145.710938 468.691406 158.96875 484.007812 L 140.828125 502.15625 L 164.460938 525.792969 L 182.601562 507.652344 C 190.433594 514.425781 198.84375 520.75 207.664062 526.492188 L 213.839844 530.519531 L 226.375 485.664062 L 223.359375 483.449219 C 175.667969 448.453125 147.191406 392.304688 147.191406 333.246094 C 147.191406 230.582031 230.710938 147.0625 333.375 147.0625 C 344.652344 147.0625 355.980469 148.078125 367.027344 150.097656 L 370.703125 150.765625 L 394.710938 110.828125 Z M 387.546875 109.109375 " clip-rule="nonzero"/></clipPath><clipPath id="040a20b3eb"><path d="M 0.460938 0.324219 L 389.757812 0.324219 L 389.757812 525.535156 L 0.460938 525.535156 Z M 0.460938 0.324219 " clip-rule="nonzero"/></clipPath><clipPath id="e86dcf7385"><path d="M 382.546875 104.109375 C 374.125 102.082031 365.542969 100.523438 357.042969 99.464844 L 352.898438 98.957031 L 328.375 0.328125 L 303.847656 98.945312 L 299.703125 99.457031 C 274.769531 102.550781 250.675781 109.65625 228.089844 120.59375 C 209.867188 129.40625 192.90625 140.574219 177.601562 153.828125 L 159.453125 135.6875 L 135.828125 159.324219 L 153.96875 177.464844 C 140.722656 192.777344 129.554688 209.730469 120.730469 227.949219 C 109.804688 250.546875 102.691406 274.640625 99.59375 299.566406 L 99.085938 303.710938 L 0.46875 328.234375 L 99.085938 352.757812 L 99.59375 356.90625 C 102.691406 381.839844 109.792969 405.933594 120.730469 428.519531 C 129.542969 446.730469 140.710938 463.691406 153.96875 479.007812 L 135.828125 497.15625 L 159.460938 520.792969 L 177.601562 502.652344 C 185.433594 509.425781 193.84375 515.75 202.664062 521.492188 L 208.839844 525.519531 L 221.375 480.664062 L 218.359375 478.449219 C 170.667969 443.453125 142.191406 387.304688 142.191406 328.246094 C 142.191406 225.582031 225.710938 142.0625 328.375 142.0625 C 339.652344 142.0625 350.980469 143.078125 362.027344 145.097656 L 365.703125 145.765625 L 389.710938 105.828125 Z M 382.546875 104.109375 " clip-rule="nonzero"/></clipPath><clipPath id="53efb31e00"><rect x="0" width="390" y="0" height="526"/></clipPath><clipPath id="6bb1bc90b6"><path d="M 220 70.15625 L 447 70.15625 L 447 595.816406 L 220 595.816406 Z M 220 70.15625 " clip-rule="nonzero"/></clipPath><clipPath id="794679d913"><path d="M 298.789062 316.441406 L 297.882812 317.953125 L 297.339844 319.871094 L 220.210938 595.808594 L 367.835938 350.238281 L 368.867188 348.527344 L 369.414062 346.570312 L 446.542969 70.660156 Z M 298.789062 316.441406 " clip-rule="nonzero"/></clipPath><clipPath id="0f342bec4c"><path d="M 0.195312 0.636719 L 226.550781 0.636719 L 226.550781 525.816406 L 0.195312 525.816406 Z M 0.195312 0.636719 " clip-rule="nonzero"/></clipPath><clipPath id="f2cce13665"><path d="M 78.789062 246.441406 L 77.882812 247.953125 L 77.339844 249.871094 L 0.210938 525.808594 L 147.835938 280.238281 L 148.867188 278.527344 L 149.414062 276.570312 L 226.542969 0.660156 Z M 78.789062 246.441406 " clip-rule="nonzero"/></clipPath><clipPath id="b90ef8f585"><rect x="0" width="227" y="0" height="526"/></clipPath><clipPath id="69788fc1c8"><path d="M 180.015625 183 L 342.601562 183 L 342.601562 440 L 180.015625 440 Z M 180.015625 183 " clip-rule="nonzero"/></clipPath><clipPath id="4ea6f04787"><path d="M 192.292969 328.332031 C 197.746094 248.085938 263.628906 186.371094 342.484375 184.542969 C 340.855469 184.382812 339.21875 184.230469 337.570312 184.113281 C 256.695312 178.609375 186.667969 239.714844 181.171875 320.589844 C 177.988281 367.449219 197.15625 410.664062 229.582031 439.792969 C 203.871094 410.085938 189.414062 370.625 192.292969 328.320312 " clip-rule="nonzero"/></clipPath><clipPath id="fc9bfc1461"><path d="M 0.015625 0 L 162.484375 0 L 162.484375 256.898438 L 0.015625 256.898438 Z M 0.015625 0 " clip-rule="nonzero"/></clipPath><clipPath id="0c8095fcb5"><path d="M 12.292969 145.332031 C 17.746094 65.085938 83.628906 3.371094 162.484375 1.542969 C 160.855469 1.382812 159.21875 1.230469 157.570312 1.113281 C 76.695312 -4.390625 6.667969 56.714844 1.171875 137.589844 C -2.011719 184.449219 17.15625 227.664062 49.582031 256.792969 C 23.871094 227.085938 9.414062 187.625 12.292969 145.320312 " clip-rule="nonzero"/></clipPath><clipPath id="a5ff3d3765"><rect x="0" width="163" y="0" height="257"/></clipPath><clipPath id="479f8536ff"><path d="M 513.625 358.878906 L 525.839844 358.878906 L 525.839844 451.355469 L 513.625 451.355469 Z M 513.625 358.878906 " clip-rule="nonzero"/></clipPath><clipPath id="ec5471c56f"><path d="M 514.550781 378.855469 L 524.910156 378.855469 L 524.910156 451.328125 L 514.550781 451.328125 Z M 513.625 364.980469 C 513.625 361.566406 516.3125 358.878906 519.726562 358.878906 C 523.144531 358.878906 525.832031 361.566406 525.832031 364.980469 C 525.832031 368.496094 523.132812 371.085938 519.726562 371.085938 C 516.320312 371.085938 513.625 368.507812 513.625 364.980469 " clip-rule="nonzero"/></clipPath><clipPath id="3f6f5725a8"><path d="M 0.625 0.878906 L 12.839844 0.878906 L 12.839844 93.355469 L 0.625 93.355469 Z M 0.625 0.878906 " clip-rule="nonzero"/></clipPath><clipPath id="e4e39219c2"><path d="M 1.550781 20.855469 L 11.910156 20.855469 L 11.910156 93.328125 L 1.550781 93.328125 Z M 0.625 6.980469 C 0.625 3.566406 3.3125 0.878906 6.726562 0.878906 C 10.144531 0.878906 12.832031 3.566406 12.832031 6.980469 C 12.832031 10.496094 10.132812 13.085938 6.726562 13.085938 C 3.320312 13.085938 0.625 10.507812 0.625 6.980469 " clip-rule="nonzero"/></clipPath><clipPath id="814f69c957"><rect x="0" width="13" y="0" height="94"/></clipPath><clipPath id="771ddd4188"><path d="M 487.691406 208.328125 L 561.949219 208.328125 L 561.949219 312 L 487.691406 312 Z M 487.691406 208.328125 " clip-rule="nonzero"/></clipPath><clipPath id="bd029f2939"><path d="M 509.960938 293.46875 C 509.960938 302.160156 511.996094 308.261719 516.0625 311.789062 L 487.691406 311.789062 C 491.769531 308.160156 493.796875 302.058594 493.796875 293.46875 L 493.796875 226.496094 C 493.796875 222.082031 493.496094 218.777344 492.898438 216.589844 C 492.058594 213.421875 490.320312 210.664062 487.691406 208.328125 L 524.714844 208.328125 C 534.792969 208.328125 543.164062 210.464844 549.816406 214.730469 C 557.707031 219.746094 561.664062 227.015625 561.664062 236.558594 C 561.664062 245.546875 558.238281 252.601562 551.386719 257.714844 C 545.230469 262.332031 537.511719 264.636719 528.21875 264.636719 L 525.683594 264.636719 C 524.941406 264.539062 523.945312 264.4375 522.707031 264.339844 C 521.714844 264.289062 519.648438 263.988281 516.523438 263.449219 C 535.34375 259.921875 544.753906 251.632812 544.753906 238.566406 C 544.753906 232.210938 542.414062 227.296875 537.75 223.820312 C 533.574219 220.742188 528.21875 219.207031 521.65625 219.207031 C 519.867188 219.207031 518.109375 219.324219 516.371094 219.574219 C 514.882812 219.574219 512.746094 219.894531 509.96875 220.542969 Z M 509.960938 293.46875 " clip-rule="nonzero"/></clipPath><clipPath id="e2289b7555"><path d="M 0.691406 0.328125 L 74.882812 0.328125 L 74.882812 103.855469 L 0.691406 103.855469 Z M 0.691406 0.328125 " clip-rule="nonzero"/></clipPath><clipPath id="36ed41a518"><path d="M 22.960938 85.46875 C 22.960938 94.160156 24.996094 100.261719 29.0625 103.789062 L 0.691406 103.789062 C 4.769531 100.160156 6.796875 94.058594 6.796875 85.46875 L 6.796875 18.496094 C 6.796875 14.082031 6.496094 10.777344 5.898438 8.589844 C 5.058594 5.421875 3.320312 2.664062 0.691406 0.328125 L 37.714844 0.328125 C 47.792969 0.328125 56.164062 2.464844 62.816406 6.730469 C 70.707031 11.746094 74.664062 19.015625 74.664062 28.558594 C 74.664062 37.546875 71.238281 44.601562 64.386719 49.714844 C 58.230469 54.332031 50.511719 56.636719 41.21875 56.636719 L 38.683594 56.636719 C 37.941406 56.539062 36.945312 56.4375 35.707031 56.339844 C 34.714844 56.289062 32.648438 55.988281 29.523438 55.449219 C 48.34375 51.921875 57.753906 43.632812 57.753906 30.566406 C 57.753906 24.210938 55.414062 19.296875 50.75 15.820312 C 46.574219 12.742188 41.21875 11.207031 34.65625 11.207031 C 32.867188 11.207031 31.109375 11.324219 29.371094 11.574219 C 27.882812 11.574219 25.746094 11.894531 22.96875 12.542969 Z M 22.960938 85.46875 " clip-rule="nonzero"/></clipPath><clipPath id="6611b9e4e6"><rect x="0" width="75" y="0" height="104"/></clipPath><clipPath id="7e7426fe8a"><path d="M 546.648438 378.859375 L 610.109375 378.859375 L 610.109375 451.492188 L 546.648438 451.492188 Z M 546.648438 378.859375 " clip-rule="nonzero"/></clipPath><clipPath id="9427769e5c"><path d="M 570.25 419.136719 L 556.996094 432.59375 L 556.996094 451.332031 L 546.648438 451.332031 L 546.648438 378.859375 L 556.996094 378.859375 L 556.996094 419.335938 L 596.34375 378.859375 L 608.140625 378.859375 L 577.183594 411.472656 L 610.109375 451.332031 L 597.992188 451.332031 Z M 570.25 419.136719 " clip-rule="nonzero"/></clipPath><clipPath id="f70c79350d"><path d="M 0.648438 0.859375 L 64.109375 0.859375 L 64.109375 73.40625 L 0.648438 73.40625 Z M 0.648438 0.859375 " clip-rule="nonzero"/></clipPath><clipPath id="5c05a7952a"><path d="M 24.25 41.136719 L 10.996094 54.59375 L 10.996094 73.332031 L 0.648438 73.332031 L 0.648438 0.859375 L 10.996094 0.859375 L 10.996094 41.335938 L 50.34375 0.859375 L 62.140625 0.859375 L 31.183594 33.472656 L 64.109375 73.332031 L 51.992188 73.332031 Z M 24.25 41.136719 " clip-rule="nonzero"/></clipPath><clipPath id="887d2d6105"><rect x="0" width="65" y="0" height="74"/></clipPath><clipPath id="2cf4d75ffd"><path d="M 621.078125 378.859375 L 631.425781 378.859375 L 631.425781 442.320312 L 621.078125 442.320312 Z M 621.078125 442.320312 L 670.664062 442.320312 L 670.664062 451.332031 L 621.078125 451.332031 Z M 621.078125 442.320312 " clip-rule="nonzero"/></clipPath><clipPath id="64d7c0780b"><path d="M 0.078125 0.859375 L 10.425781 0.859375 L 10.425781 64.320312 L 0.078125 64.320312 Z M 0.078125 64.320312 L 49.664062 64.320312 L 49.664062 73.332031 L 0.078125 73.332031 Z M 0.078125 64.320312 " clip-rule="nonzero"/></clipPath><clipPath id="d5c1ca8966"><rect x="0" width="50" y="0" height="74"/></clipPath><clipPath id="16d9eae3d0"><path d="M 681.636719 358.878906 L 693.855469 358.878906 L 693.855469 451.363281 L 681.636719 451.363281 Z M 681.636719 358.878906 " clip-rule="nonzero"/></clipPath><clipPath id="5cae6d7f07"><path d="M 682.566406 378.855469 L 692.925781 378.855469 L 692.925781 451.332031 L 682.566406 451.332031 Z M 681.636719 364.980469 C 681.636719 361.566406 684.335938 358.878906 687.742188 358.878906 C 691.148438 358.878906 693.84375 361.566406 693.84375 364.980469 C 693.84375 368.496094 691.15625 371.085938 687.742188 371.085938 C 684.324219 371.085938 681.636719 368.507812 681.636719 364.980469 " clip-rule="nonzero"/></clipPath><clipPath id="8e0a28d54e"><path d="M 0.636719 0.878906 L 12.855469 0.878906 L 12.855469 93.363281 L 0.636719 93.363281 Z M 0.636719 0.878906 " clip-rule="nonzero"/></clipPath><clipPath id="67e141d3b1"><path d="M 1.566406 20.855469 L 11.925781 20.855469 L 11.925781 93.332031 L 1.566406 93.332031 Z M 0.636719 6.980469 C 0.636719 3.566406 3.335938 0.878906 6.742188 0.878906 C 10.148438 0.878906 12.84375 3.566406 12.84375 6.980469 C 12.84375 10.496094 10.15625 13.085938 6.742188 13.085938 C 3.324219 13.085938 0.636719 10.507812 0.636719 6.980469 " clip-rule="nonzero"/></clipPath><clipPath id="09f7e71d2b"><rect x="0" width="13" y="0" height="94"/></clipPath><clipPath id="f7264c4be5"><path d="M 645.835938 208.328125 L 740.578125 208.328125 L 740.578125 314.867188 L 645.835938 314.867188 Z M 645.835938 208.328125 " clip-rule="nonzero"/></clipPath><clipPath id="07297764b7"><path d="M 718.6875 311.789062 L 718.6875 303.898438 C 708.460938 311.097656 698.148438 314.695312 687.769531 314.695312 C 675.652344 314.695312 666.195312 310.71875 659.390625 302.777344 C 654.375 296.914062 651.871094 287.703125 651.871094 275.136719 L 651.871094 226.496094 C 651.871094 218.058594 649.859375 212.003906 645.835938 208.328125 L 674.144531 208.328125 C 670.070312 212.003906 668.042969 218.058594 668.042969 226.496094 L 668.042969 271.941406 C 668.042969 279.140625 668.390625 284.40625 669.089844 287.734375 C 670.480469 294.4375 674.265625 298.953125 680.429688 301.289062 C 683.746094 302.578125 687.75 303.226562 692.425781 303.226562 C 699.988281 303.226562 706.402344 301.039062 711.675781 296.675781 C 715.75 293.296875 717.789062 287.09375 717.789062 278.054688 L 717.789062 226.496094 C 717.789062 217.808594 715.800781 211.753906 711.835938 208.328125 L 740.214844 208.328125 C 736.140625 211.851562 734.113281 217.90625 734.113281 226.496094 L 734.113281 293.46875 C 734.113281 297.882812 734.414062 301.210938 735.011719 303.445312 C 735.851562 306.625 737.589844 309.410156 740.226562 311.789062 Z M 718.6875 311.789062 " clip-rule="nonzero"/></clipPath><clipPath id="a5a8dc5b6a"><path d="M 0.835938 0.328125 L 95.28125 0.328125 L 95.28125 106.734375 L 0.835938 106.734375 Z M 0.835938 0.328125 " clip-rule="nonzero"/></clipPath><clipPath id="3855fc7e23"><path d="M 73.6875 103.789062 L 73.6875 95.898438 C 63.460938 103.097656 53.148438 106.695312 42.769531 106.695312 C 30.652344 106.695312 21.195312 102.71875 14.390625 94.777344 C 9.375 88.914062 6.871094 79.703125 6.871094 67.136719 L 6.871094 18.496094 C 6.871094 10.058594 4.859375 4.003906 0.835938 0.328125 L 29.144531 0.328125 C 25.070312 4.003906 23.042969 10.058594 23.042969 18.496094 L 23.042969 63.941406 C 23.042969 71.140625 23.390625 76.40625 24.089844 79.734375 C 25.480469 86.4375 29.265625 90.953125 35.429688 93.289062 C 38.746094 94.578125 42.75 95.226562 47.425781 95.226562 C 54.988281 95.226562 61.402344 93.039062 66.675781 88.675781 C 70.75 85.296875 72.789062 79.09375 72.789062 70.054688 L 72.789062 18.496094 C 72.789062 9.808594 70.800781 3.753906 66.835938 0.328125 L 95.214844 0.328125 C 91.140625 3.851562 89.113281 9.90625 89.113281 18.496094 L 89.113281 85.46875 C 89.113281 89.882812 89.414062 93.210938 90.011719 95.445312 C 90.851562 98.625 92.589844 101.410156 95.226562 103.789062 Z M 73.6875 103.789062 " clip-rule="nonzero"/></clipPath><clipPath id="7b556ada00"><rect x="0" width="96" y="0" height="107"/></clipPath><clipPath id="9ea25be4d9"><path d="M 714.660156 378.859375 L 791.941406 378.859375 L 791.941406 451.613281 L 714.660156 451.613281 Z M 714.660156 378.859375 " clip-rule="nonzero"/></clipPath><clipPath id="b5cb897bd5"><path d="M 781.847656 451.332031 L 781.75 398.527344 L 755.558594 442.53125 L 750.792969 442.53125 L 724.597656 398.839844 L 724.597656 451.332031 L 714.660156 451.332031 L 714.660156 378.859375 L 723.152344 378.859375 L 753.378906 429.796875 L 783.199219 378.859375 L 791.6875 378.859375 L 791.789062 451.332031 Z M 781.847656 451.332031 " clip-rule="nonzero"/></clipPath><clipPath id="bfa6110561"><path d="M 0.660156 0.859375 L 77.832031 0.859375 L 77.832031 73.40625 L 0.660156 73.40625 Z M 0.660156 0.859375 " clip-rule="nonzero"/></clipPath><clipPath id="a8d39644f0"><path d="M 67.847656 73.332031 L 67.75 20.527344 L 41.558594 64.53125 L 36.792969 64.53125 L 10.597656 20.839844 L 10.597656 73.332031 L 0.660156 73.332031 L 0.660156 0.859375 L 9.152344 0.859375 L 39.378906 51.796875 L 69.199219 0.859375 L 77.6875 0.859375 L 77.789062 73.332031 Z M 67.847656 73.332031 " clip-rule="nonzero"/></clipPath><clipPath id="7b21dbe192"><rect x="0" width="78" y="0" height="74"/></clipPath><clipPath id="0e65d4b817"><path d="M 813.523438 378.859375 L 823.871094 378.859375 L 823.871094 442.320312 L 813.523438 442.320312 Z M 813.523438 442.320312 L 863.109375 442.320312 L 863.109375 451.332031 L 813.523438 451.332031 Z M 813.523438 442.320312 " clip-rule="nonzero"/></clipPath><clipPath id="2ed7f269a3"><path d="M 0.523438 0.859375 L 10.871094 0.859375 L 10.871094 64.320312 L 0.523438 64.320312 Z M 0.523438 64.320312 L 50.109375 64.320312 L 50.109375 73.332031 L 0.523438 73.332031 Z M 0.523438 64.320312 " clip-rule="nonzero"/></clipPath><clipPath id="3752349f88"><rect x="0" width="51" y="0" height="74"/></clipPath><clipPath id="f069439468"><path d="M 822.003906 206.242188 L 897.382812 206.242188 L 897.382812 314.757812 L 822.003906 314.757812 Z M 822.003906 206.242188 " clip-rule="nonzero"/></clipPath><clipPath id="7d4a5c6369"><path d="M 826.921875 309.480469 L 822.003906 290.710938 C 833.824219 298.652344 845.269531 302.628906 856.347656 302.628906 C 862.402344 302.628906 867.597656 301.410156 871.914062 298.984375 C 877.277344 296.007812 879.953125 291.730469 879.953125 286.175781 C 879.953125 281.410156 877.398438 277.136719 872.28125 273.359375 C 870.195312 271.871094 865.550781 269.382812 858.355469 265.90625 L 852.023438 262.851562 C 842.242188 258.136719 835.3125 253.441406 831.246094 248.777344 C 827.519531 244.550781 825.660156 239.515625 825.660156 233.652344 C 825.660156 224.171875 829.90625 216.988281 838.398438 212.125 C 845.289062 208.199219 853.863281 206.242188 864.089844 206.242188 C 871.195312 206.242188 879.433594 207.160156 888.824219 208.996094 L 888.824219 226.347656 C 880.335938 219.945312 871.542969 216.738281 862.453125 216.738281 C 857.386719 216.738281 853.0625 217.730469 849.496094 219.714844 C 845.03125 222.203125 842.792969 225.769531 842.792969 230.445312 C 842.792969 235.160156 845.671875 239.535156 851.433594 243.550781 C 853.722656 245.140625 858.605469 247.695312 866.109375 251.222656 L 868.636719 252.410156 C 877.277344 256.488281 883.511719 260.015625 887.335938 262.992188 C 893.839844 268.054688 897.097656 274.609375 897.097656 282.648438 C 897.097656 291.539062 893.039062 299.074219 884.917969 305.257812 C 876.796875 311.441406 866.609375 314.527344 854.339844 314.527344 C 850.464844 314.527344 846.21875 314.105469 841.605469 313.257812 C 836.988281 312.410156 832.09375 311.148438 826.929688 309.460938 " clip-rule="nonzero"/></clipPath><clipPath id="23df85eaa2"><path d="M 0.00390625 0.242188 L 75.097656 0.242188 L 75.097656 108.734375 L 0.00390625 108.734375 Z M 0.00390625 0.242188 " clip-rule="nonzero"/></clipPath><clipPath id="9755899750"><path d="M 4.921875 103.480469 L 0.00390625 84.710938 C 11.824219 92.652344 23.269531 96.628906 34.347656 96.628906 C 40.402344 96.628906 45.597656 95.410156 49.914062 92.984375 C 55.277344 90.007812 57.953125 85.730469 57.953125 80.175781 C 57.953125 75.410156 55.398438 71.136719 50.28125 67.359375 C 48.195312 65.871094 43.550781 63.382812 36.355469 59.90625 L 30.023438 56.851562 C 20.242188 52.136719 13.3125 47.441406 9.246094 42.777344 C 5.519531 38.550781 3.660156 33.515625 3.660156 27.652344 C 3.660156 18.171875 7.90625 10.988281 16.398438 6.125 C 23.289062 2.199219 31.863281 0.242188 42.089844 0.242188 C 49.195312 0.242188 57.433594 1.160156 66.824219 2.996094 L 66.824219 20.347656 C 58.335938 13.945312 49.542969 10.738281 40.453125 10.738281 C 35.386719 10.738281 31.0625 11.730469 27.496094 13.714844 C 23.03125 16.203125 20.792969 19.769531 20.792969 24.445312 C 20.792969 29.160156 23.671875 33.535156 29.433594 37.550781 C 31.722656 39.140625 36.605469 41.695312 44.109375 45.222656 L 46.636719 46.410156 C 55.277344 50.488281 61.511719 54.015625 65.335938 56.992188 C 71.839844 62.054688 75.097656 68.609375 75.097656 76.648438 C 75.097656 85.539062 71.039062 93.074219 62.917969 99.257812 C 54.796875 105.441406 44.609375 108.527344 32.339844 108.527344 C 28.464844 108.527344 24.21875 108.105469 19.605469 107.257812 C 14.988281 106.410156 10.09375 105.148438 4.929688 103.460938 " clip-rule="nonzero"/></clipPath><clipPath id="60538d9d28"><rect x="0" width="76" y="0" height="109"/></clipPath><clipPath id="cc052ef62a"><path d="M 875.011719 378.859375 L 926.160156 378.859375 L 926.160156 387.867188 L 875.011719 387.867188 Z M 875.011719 387.867188 L 885.363281 387.867188 L 885.363281 410.125 L 875.011719 410.125 Z M 875.011719 410.125 L 921.703125 410.125 L 921.703125 418.925781 L 875.011719 418.925781 Z M 875.011719 418.925781 L 885.363281 418.925781 L 885.363281 442.320312 L 875.011719 442.320312 Z M 875.011719 442.320312 L 927.609375 442.320312 L 927.609375 451.332031 L 875.011719 451.332031 Z M 875.011719 442.320312 " clip-rule="nonzero"/></clipPath><clipPath id="5ac01b9ed9"><path d="M 0.0117188 0.859375 L 51.160156 0.859375 L 51.160156 9.867188 L 0.0117188 9.867188 Z M 0.0117188 9.867188 L 10.363281 9.867188 L 10.363281 32.125 L 0.0117188 32.125 Z M 0.0117188 32.125 L 46.703125 32.125 L 46.703125 40.925781 L 0.0117188 40.925781 Z M 0.0117188 40.925781 L 10.363281 40.925781 L 10.363281 64.320312 L 0.0117188 64.320312 Z M 0.0117188 64.320312 L 52.609375 64.320312 L 52.609375 73.332031 L 0.0117188 73.332031 Z M 0.0117188 64.320312 " clip-rule="nonzero"/></clipPath><clipPath id="587830a966"><rect x="0" width="53" y="0" height="74"/></clipPath><clipPath id="7fc882173b"><path d="M 944.371094 378.859375 L 1006.695312 378.859375 L 1006.695312 451.40625 L 944.371094 451.40625 Z M 944.371094 378.859375 " clip-rule="nonzero"/></clipPath><clipPath id="400421548b"><path d="M 1006.695312 378.859375 L 1006.695312 451.332031 L 998.207031 451.332031 L 954.722656 397.289062 L 954.722656 451.332031 L 944.371094 451.332031 L 944.371094 378.859375 L 952.863281 378.859375 L 996.347656 432.902344 L 996.347656 378.859375 Z M 1006.695312 378.859375 " clip-rule="nonzero"/></clipPath><clipPath id="7daa027958"><path d="M 0.371094 0.859375 L 62.695312 0.859375 L 62.695312 73.40625 L 0.371094 73.40625 Z M 0.371094 0.859375 " clip-rule="nonzero"/></clipPath><clipPath id="cab4979534"><path d="M 62.695312 0.859375 L 62.695312 73.332031 L 54.207031 73.332031 L 10.722656 19.289062 L 10.722656 73.332031 L 0.371094 73.332031 L 0.371094 0.859375 L 8.863281 0.859375 L 52.347656 54.902344 L 52.347656 0.859375 Z M 62.695312 0.859375 " clip-rule="nonzero"/></clipPath><clipPath id="12c39e2de6"><rect x="0" width="63" y="0" height="74"/></clipPath><clipPath id="54bf5ea96a"><path d="M 980.519531 208.328125 L 1074.894531 208.328125 L 1074.894531 314.867188 L 980.519531 314.867188 Z M 980.519531 208.328125 " clip-rule="nonzero"/></clipPath><clipPath id="eeace378fe"><path d="M 1053.375 311.789062 L 1053.375 303.898438 C 1043.144531 311.097656 1032.835938 314.695312 1022.464844 314.695312 C 1010.347656 314.695312 1000.886719 310.71875 994.085938 302.777344 C 989.070312 296.914062 986.5625 287.703125 986.5625 275.136719 L 986.5625 226.496094 C 986.554688 218.058594 984.546875 212.003906 980.519531 208.328125 L 1008.832031 208.328125 C 1004.753906 212.003906 1002.726562 218.058594 1002.726562 226.496094 L 1002.726562 271.941406 C 1002.726562 279.140625 1003.078125 284.40625 1003.765625 287.734375 C 1005.152344 294.4375 1008.941406 298.953125 1015.105469 301.289062 C 1018.429688 302.578125 1022.4375 303.226562 1027.109375 303.226562 C 1034.671875 303.226562 1041.085938 301.039062 1046.359375 296.675781 C 1050.4375 293.296875 1052.472656 287.09375 1052.472656 278.054688 L 1052.472656 226.496094 C 1052.472656 217.808594 1050.484375 211.753906 1046.519531 208.328125 L 1074.890625 208.328125 C 1070.816406 211.851562 1068.785156 217.90625 1068.785156 226.496094 L 1068.785156 293.46875 C 1068.785156 297.882812 1069.085938 301.210938 1069.675781 303.445312 C 1070.515625 306.625 1072.253906 309.410156 1074.890625 311.789062 Z M 1053.375 311.789062 " clip-rule="nonzero"/></clipPath><clipPath id="5475b9ff7f"><path d="M 0.519531 0.328125 L 94.894531 0.328125 L 94.894531 106.734375 L 0.519531 106.734375 Z M 0.519531 0.328125 " clip-rule="nonzero"/></clipPath><clipPath id="fc83de174c"><path d="M 73.375 103.789062 L 73.375 95.898438 C 63.144531 103.097656 52.835938 106.695312 42.464844 106.695312 C 30.347656 106.695312 20.886719 102.71875 14.085938 94.777344 C 9.070312 88.914062 6.5625 79.703125 6.5625 67.136719 L 6.5625 18.496094 C 6.554688 10.058594 4.546875 4.003906 0.519531 0.328125 L 28.832031 0.328125 C 24.753906 4.003906 22.726562 10.058594 22.726562 18.496094 L 22.726562 63.941406 C 22.726562 71.140625 23.078125 76.40625 23.765625 79.734375 C 25.152344 86.4375 28.941406 90.953125 35.105469 93.289062 C 38.429688 94.578125 42.4375 95.226562 47.109375 95.226562 C 54.671875 95.226562 61.085938 93.039062 66.359375 88.675781 C 70.4375 85.296875 72.472656 79.09375 72.472656 70.054688 L 72.472656 18.496094 C 72.472656 9.808594 70.484375 3.753906 66.519531 0.328125 L 94.890625 0.328125 C 90.816406 3.851562 88.785156 9.90625 88.785156 18.496094 L 88.785156 85.46875 C 88.785156 89.882812 89.085938 93.210938 89.675781 95.445312 C 90.515625 98.625 92.253906 101.410156 94.890625 103.789062 Z M 73.375 103.789062 " clip-rule="nonzero"/></clipPath><clipPath id="87304b269a"><rect x="0" width="95" y="0" height="107"/></clipPath><clipPath id="db212186cb"><path d="M 1028.429688 378.859375 L 1098.378906 378.859375 L 1098.378906 451.527344 L 1028.429688 451.527344 Z M 1028.429688 378.859375 " clip-rule="nonzero"/></clipPath><clipPath id="cd89f3d52e"><path d="M 1058.351562 442.320312 C 1076.261719 442.320312 1087.75 431.351562 1087.75 415.089844 C 1087.75 398.828125 1076.261719 387.867188 1058.351562 387.867188 L 1038.78125 387.867188 L 1038.78125 442.320312 Z M 1028.429688 378.859375 L 1058.96875 378.859375 C 1082.265625 378.859375 1098.109375 393.5625 1098.109375 415.089844 C 1098.109375 436.617188 1082.265625 451.332031 1058.96875 451.332031 L 1028.429688 451.332031 Z M 1028.429688 378.859375 " clip-rule="nonzero"/></clipPath><clipPath id="edb3a1d779"><path d="M 0.429688 0.859375 L 70.273438 0.859375 L 70.273438 73.40625 L 0.429688 73.40625 Z M 0.429688 0.859375 " clip-rule="nonzero"/></clipPath><clipPath id="bc691ef773"><path d="M 30.351562 64.320312 C 48.261719 64.320312 59.75 53.351562 59.75 37.089844 C 59.75 20.828125 48.261719 9.867188 30.351562 9.867188 L 10.78125 9.867188 L 10.78125 64.320312 Z M 0.429688 0.859375 L 30.96875 0.859375 C 54.265625 0.859375 70.109375 15.5625 70.109375 37.089844 C 70.109375 58.617188 54.265625 73.332031 30.96875 73.332031 L 0.429688 73.332031 Z M 0.429688 0.859375 " clip-rule="nonzero"/></clipPath><clipPath id="740015f6d6"><rect x="0" width="71" y="0" height="74"/></clipPath><clipPath id="38da8f9cd1"><path d="M 1113.007812 358.878906 L 1125.222656 358.878906 L 1125.222656 451.363281 L 1113.007812 451.363281 Z M 1113.007812 358.878906 " clip-rule="nonzero"/></clipPath><clipPath id="99eea87f75"><path d="M 1113.9375 378.855469 L 1124.296875 378.855469 L 1124.296875 451.332031 L 1113.9375 451.332031 Z M 1113.007812 364.980469 C 1113.007812 361.566406 1115.695312 358.878906 1119.109375 358.878906 C 1122.527344 358.878906 1125.214844 361.566406 1125.214844 364.980469 C 1125.214844 368.496094 1122.515625 371.085938 1119.109375 371.085938 C 1115.703125 371.085938 1113.007812 368.507812 1113.007812 364.980469 " clip-rule="nonzero"/></clipPath><clipPath id="5cae485a44"><path d="M 0.0078125 0.878906 L 12.222656 0.878906 L 12.222656 93.363281 L 0.0078125 93.363281 Z M 0.0078125 0.878906 " clip-rule="nonzero"/></clipPath><clipPath id="363953c5e1"><path d="M 0.9375 20.855469 L 11.296875 20.855469 L 11.296875 93.332031 L 0.9375 93.332031 Z M 0.0078125 6.980469 C 0.0078125 3.566406 2.695312 0.878906 6.109375 0.878906 C 9.527344 0.878906 12.214844 3.566406 12.214844 6.980469 C 12.214844 10.496094 9.515625 13.085938 6.109375 13.085938 C 2.703125 13.085938 0.0078125 10.507812 0.0078125 6.980469 " clip-rule="nonzero"/></clipPath><clipPath id="a4690058fd"><rect x="0" width="13" y="0" height="94"/></clipPath><clipPath id="b02f32bff6"><path d="M 1146.03125 378.859375 L 1206 378.859375 L 1206 451.425781 L 1146.03125 451.425781 Z M 1146.03125 378.859375 " clip-rule="nonzero"/></clipPath><clipPath id="4038e241ea"><path d="M 1194.171875 404.121094 C 1194.171875 393.773438 1187.238281 387.867188 1173.980469 387.867188 L 1156.378906 387.867188 L 1156.378906 420.472656 L 1173.980469 420.472656 C 1187.238281 420.472656 1194.171875 414.472656 1194.171875 404.113281 M 1194.480469 451.320312 L 1178.847656 429.066406 C 1177.398438 429.164062 1175.839844 429.273438 1174.289062 429.273438 L 1156.378906 429.273438 L 1156.378906 451.332031 L 1146.03125 451.332031 L 1146.03125 378.859375 L 1174.289062 378.859375 C 1193.140625 378.859375 1204.527344 388.386719 1204.527344 404.121094 C 1204.527344 415.300781 1198.734375 423.382812 1188.585938 426.996094 L 1205.769531 451.332031 Z M 1194.480469 451.320312 " clip-rule="nonzero"/></clipPath><clipPath id="3fbe77f54b"><path d="M 0.03125 0.859375 L 59.933594 0.859375 L 59.933594 73.40625 L 0.03125 73.40625 Z M 0.03125 0.859375 " clip-rule="nonzero"/></clipPath><clipPath id="737e811806"><path d="M 48.171875 26.121094 C 48.171875 15.773438 41.238281 9.867188 27.980469 9.867188 L 10.378906 9.867188 L 10.378906 42.472656 L 27.980469 42.472656 C 41.238281 42.472656 48.171875 36.472656 48.171875 26.113281 M 48.480469 73.320312 L 32.847656 51.066406 C 31.398438 51.164062 29.839844 51.273438 28.289062 51.273438 L 10.378906 51.273438 L 10.378906 73.332031 L 0.03125 73.332031 L 0.03125 0.859375 L 28.289062 0.859375 C 47.140625 0.859375 58.527344 10.386719 58.527344 26.121094 C 58.527344 37.300781 52.734375 45.382812 42.585938 48.996094 L 59.769531 73.332031 Z M 48.480469 73.320312 " clip-rule="nonzero"/></clipPath><clipPath id="7628d3b935"><rect x="0" width="60" y="0" height="74"/></clipPath><clipPath id="92a748cdc4"><path d="M 1161.828125 208.328125 L 1232 208.328125 L 1232 311.988281 L 1161.828125 311.988281 Z M 1161.828125 208.328125 " clip-rule="nonzero"/></clipPath><clipPath id="bc8126e845"><path d="M 1161.828125 311.789062 C 1165.90625 308.164062 1167.933594 302.058594 1167.933594 293.46875 L 1167.933594 226.5 C 1167.933594 222.082031 1167.632812 218.777344 1167.035156 216.589844 C 1166.195312 213.421875 1164.457031 210.664062 1161.828125 208.328125 L 1190.210938 208.328125 C 1186.132812 211.851562 1184.105469 217.90625 1184.105469 226.5 L 1184.105469 298.382812 C 1192.246094 299.570312 1198.609375 300.171875 1203.175781 300.171875 C 1213.554688 300.171875 1223.113281 297.292969 1231.855469 291.53125 L 1224.632812 311.789062 Z M 1161.828125 311.789062 " clip-rule="nonzero"/></clipPath><clipPath id="55d1ffbac4"><path d="M 0.828125 0.328125 L 71 0.328125 L 71 103.855469 L 0.828125 103.855469 Z M 0.828125 0.328125 " clip-rule="nonzero"/></clipPath><clipPath id="27cf23fddb"><path d="M 0.828125 103.789062 C 4.90625 100.164062 6.933594 94.058594 6.933594 85.46875 L 6.933594 18.5 C 6.933594 14.082031 6.632812 10.777344 6.035156 8.589844 C 5.195312 5.421875 3.457031 2.664062 0.828125 0.328125 L 29.210938 0.328125 C 25.132812 3.851562 23.105469 9.90625 23.105469 18.5 L 23.105469 90.382812 C 31.246094 91.570312 37.609375 92.171875 42.175781 92.171875 C 52.554688 92.171875 62.113281 89.292969 70.855469 83.53125 L 63.632812 103.789062 Z M 0.828125 103.789062 " clip-rule="nonzero"/></clipPath><clipPath id="5e1d90c380"><rect x="0" width="71" y="0" height="104"/></clipPath><clipPath id="c8b0997916"><path d="M 1221.289062 378.859375 L 1298.570312 378.859375 L 1298.570312 451.613281 L 1221.289062 451.613281 Z M 1221.289062 378.859375 " clip-rule="nonzero"/></clipPath><clipPath id="e48083847a"><path d="M 1288.480469 451.332031 L 1288.378906 398.527344 L 1262.1875 442.53125 L 1257.421875 442.53125 L 1231.230469 398.839844 L 1231.230469 451.332031 L 1221.289062 451.332031 L 1221.289062 378.859375 L 1229.78125 378.859375 L 1260.007812 429.796875 L 1289.828125 378.859375 L 1298.320312 378.859375 L 1298.417969 451.332031 Z M 1288.480469 451.332031 " clip-rule="nonzero"/></clipPath><clipPath id="477c600fca"><path d="M 0.289062 0.859375 L 77.488281 0.859375 L 77.488281 73.40625 L 0.289062 73.40625 Z M 0.289062 0.859375 " clip-rule="nonzero"/></clipPath><clipPath id="ed7dc9747d"><path d="M 67.480469 73.332031 L 67.378906 20.527344 L 41.1875 64.53125 L 36.421875 64.53125 L 10.230469 20.839844 L 10.230469 73.332031 L 0.289062 73.332031 L 0.289062 0.859375 L 8.78125 0.859375 L 39.007812 51.796875 L 68.828125 0.859375 L 77.320312 0.859375 L 77.417969 73.332031 Z M 67.480469 73.332031 " clip-rule="nonzero"/></clipPath><clipPath id="011f33d680"><rect x="0" width="78" y="0" height="74"/></clipPath><clipPath id="aeb59c3d72"><path d="M 1297.105469 208.328125 L 1403.398438 208.328125 L 1403.398438 311.789062 L 1297.105469 311.789062 Z M 1297.105469 208.328125 " clip-rule="nonzero"/></clipPath><clipPath id="a5f37e7e67"><path d="M 1332.308594 262.699219 L 1362.808594 262.699219 L 1348.171875 222.703125 Z M 1318.3125 297.773438 C 1317.914062 298.761719 1317.5625 299.859375 1317.265625 301.050781 L 1316.996094 304.476562 C 1316.84375 306.464844 1318.363281 308.902344 1321.539062 311.789062 L 1297.105469 311.789062 C 1300.933594 309.300781 1304.40625 304.066406 1307.535156 296.074219 L 1336.652344 222.253906 C 1337.84375 219.226562 1338.441406 216.667969 1338.441406 214.582031 C 1338.441406 212.292969 1337.222656 210.214844 1334.796875 208.328125 L 1358.332031 208.328125 L 1391.257812 295.027344 C 1393.792969 301.679688 1397.710938 307.261719 1403.023438 311.789062 L 1373.375 311.789062 L 1373.746094 311.417969 C 1376.472656 308.691406 1377.839844 306.582031 1377.839844 305.09375 C 1377.839844 304.007812 1377.242188 301.667969 1376.03125 298.101562 L 1375.652344 296.984375 L 1366.824219 273.058594 L 1328.222656 273.058594 Z M 1318.3125 297.773438 " clip-rule="nonzero"/></clipPath><clipPath id="491edf9de5"><path d="M 0.105469 0.328125 L 106 0.328125 L 106 103.789062 L 0.105469 103.789062 Z M 0.105469 0.328125 " clip-rule="nonzero"/></clipPath><clipPath id="a3894e8dac"><path d="M 35.308594 54.699219 L 65.808594 54.699219 L 51.171875 14.703125 Z M 21.3125 89.773438 C 20.914062 90.761719 20.5625 91.859375 20.265625 93.050781 L 19.996094 96.476562 C 19.84375 98.464844 21.363281 100.902344 24.539062 103.789062 L 0.105469 103.789062 C 3.933594 101.300781 7.40625 96.066406 10.535156 88.074219 L 39.652344 14.253906 C 40.84375 11.226562 41.441406 8.667969 41.441406 6.582031 C 41.441406 4.292969 40.222656 2.214844 37.796875 0.328125 L 61.332031 0.328125 L 94.257812 87.027344 C 96.792969 93.679688 100.710938 99.261719 106.023438 103.789062 L 76.375 103.789062 L 76.746094 103.417969 C 79.472656 100.691406 80.839844 98.582031 80.839844 97.09375 C 80.839844 96.007812 80.242188 93.667969 79.03125 90.101562 L 78.652344 88.984375 L 69.824219 65.058594 L 31.222656 65.058594 Z M 21.3125 89.773438 " clip-rule="nonzero"/></clipPath><clipPath id="93486b0a4d"><rect x="0" width="107" y="0" height="104"/></clipPath><clipPath id="4a116c2d1a"><path d="M 1320.152344 378.859375 L 1371.296875 378.859375 L 1371.296875 387.867188 L 1320.152344 387.867188 Z M 1320.152344 387.867188 L 1330.5 387.867188 L 1330.5 410.125 L 1320.152344 410.125 Z M 1320.152344 410.125 L 1366.839844 410.125 L 1366.839844 418.925781 L 1320.152344 418.925781 Z M 1320.152344 418.925781 L 1330.5 418.925781 L 1330.5 442.320312 L 1320.152344 442.320312 Z M 1320.152344 442.320312 L 1372.746094 442.320312 L 1372.746094 451.332031 L 1320.152344 451.332031 Z M 1320.152344 442.320312 " clip-rule="nonzero"/></clipPath><clipPath id="5b8495be1e"><path d="M 0.152344 0.859375 L 51.296875 0.859375 L 51.296875 9.867188 L 0.152344 9.867188 Z M 0.152344 9.867188 L 10.5 9.867188 L 10.5 32.125 L 0.152344 32.125 Z M 0.152344 32.125 L 46.839844 32.125 L 46.839844 40.925781 L 0.152344 40.925781 Z M 0.152344 40.925781 L 10.5 40.925781 L 10.5 64.320312 L 0.152344 64.320312 Z M 0.152344 64.320312 L 52.746094 64.320312 L 52.746094 73.332031 L 0.152344 73.332031 Z M 0.152344 64.320312 " clip-rule="nonzero"/></clipPath><clipPath id="f601b1045e"><rect x="0" width="53" y="0" height="74"/></clipPath><clipPath id="9d85b8ef2d"><rect x="0" width="1404" y="0" height="602"/></clipPath></defs><g transform="matrix(1, 0, 0, 1, 227, 108)"><g clip-path="url(#9d85b8ef2d)"><g clip-path="url(#07daedff14)"><g clip-path="url(#23ba78a3a9)"><g transform="matrix(1, 0, 0, 1, 5, 5)"><g clip-path="url(#53efb31e00)"><g clip-path="url(#040a20b3eb)"><g clip-path="url(#e86dcf7385)"><rect x="-908.221" width="3210.192" fill="#00b6eb" y="-410.842993" height="1413.935965" fill-opacity="1"/></g></g></g></g></g></g><g clip-path="url(#6bb1bc90b6)"><g clip-path="url(#794679d913)"><g transform="matrix(1, 0, 0, 1, 220, 70)"><g clip-path="url(#b90ef8f585)"><g clip-path="url(#0f342bec4c)"><g clip-path="url(#f2cce13665)"><rect x="-1123.221" width="3210.192" fill="#1c3461" y="-475.842993" height="1413.935965" fill-opacity="1"/></g></g></g></g></g></g><g clip-path="url(#69788fc1c8)"><g clip-path="url(#4ea6f04787)"><g transform="matrix(1, 0, 0, 1, 180, 183)"><g clip-path="url(#a5ff3d3765)"><g clip-path="url(#fc9bfc1461)"><g clip-path="url(#0c8095fcb5)"><rect x="-1083.221" width="3210.192" fill="#00b6eb" y="-588.842993" height="1413.935965" fill-opacity="1"/></g></g></g></g></g></g><g clip-path="url(#479f8536ff)"><g clip-path="url(#ec5471c56f)"><g transform="matrix(1, 0, 0, 1, 513, 358)"><g clip-path="url(#814f69c957)"><g clip-path="url(#3f6f5725a8)"><g clip-path="url(#e4e39219c2)"><path fill="#555555" d="M 0.625 0.878906 L 12.839844 0.878906 L 12.839844 93.308594 L 0.625 93.308594 Z M 0.625 0.878906 " fill-opacity="1" fill-rule="nonzero"/></g></g></g></g></g></g><g clip-path="url(#771ddd4188)"><g clip-path="url(#bd029f2939)"><g transform="matrix(1, 0, 0, 1, 487, 208)"><g clip-path="url(#6611b9e4e6)"><g clip-path="url(#e2289b7555)"><g clip-path="url(#36ed41a518)"><path fill="#00b6eb" d="M 0.691406 0.328125 L 74.660156 0.328125 L 74.660156 103.765625 L 0.691406 103.765625 Z M 0.691406 0.328125 " fill-opacity="1" fill-rule="nonzero"/></g></g></g></g></g></g><g clip-path="url(#7e7426fe8a)"><g clip-path="url(#9427769e5c)"><g transform="matrix(1, 0, 0, 1, 546, 378)"><g clip-path="url(#887d2d6105)"><g clip-path="url(#f70c79350d)"><g clip-path="url(#5c05a7952a)"><path fill="#555555" d="M 0.648438 0.859375 L 64.109375 0.859375 L 64.109375 73.246094 L 0.648438 73.246094 Z M 0.648438 0.859375 " fill-opacity="1" fill-rule="nonzero"/></g></g></g></g></g></g><g clip-path="url(#2cf4d75ffd)"><g transform="matrix(1, 0, 0, 1, 621, 378)"><g clip-path="url(#d5c1ca8966)"><g clip-path="url(#64d7c0780b)"><path fill="#555555" d="M 0.078125 0.859375 L 49.667969 0.859375 L 49.667969 73.308594 L 0.078125 73.308594 Z M 0.078125 0.859375 " fill-opacity="1" fill-rule="nonzero"/></g></g></g></g><g clip-path="url(#16d9eae3d0)"><g clip-path="url(#5cae6d7f07)"><g transform="matrix(1, 0, 0, 1, 681, 358)"><g clip-path="url(#09f7e71d2b)"><g clip-path="url(#8e0a28d54e)"><g clip-path="url(#67e141d3b1)"><path fill="#555555" d="M 0.636719 0.878906 L 12.855469 0.878906 L 12.855469 93.316406 L 0.636719 93.316406 Z M 0.636719 0.878906 " fill-opacity="1" fill-rule="nonzero"/></g></g></g></g></g></g><g clip-path="url(#f7264c4be5)"><g clip-path="url(#07297764b7)"><g transform="matrix(1, 0, 0, 1, 645, 208)"><g clip-path="url(#7b556ada00)"><g clip-path="url(#a5a8dc5b6a)"><g clip-path="url(#3855fc7e23)"><path fill="#00b6eb" d="M 0.835938 0.328125 L 95.210938 0.328125 L 95.210938 106.867188 L 0.835938 106.867188 Z M 0.835938 0.328125 " fill-opacity="1" fill-rule="nonzero"/></g></g></g></g></g></g><g clip-path="url(#9ea25be4d9)"><g clip-path="url(#b5cb897bd5)"><g transform="matrix(1, 0, 0, 1, 714, 378)"><g clip-path="url(#7b21dbe192)"><g clip-path="url(#bfa6110561)"><g clip-path="url(#a8d39644f0)"><path fill="#555555" d="M 0.660156 0.859375 L 77.660156 0.859375 L 77.660156 73.328125 L 0.660156 73.328125 Z M 0.660156 0.859375 " fill-opacity="1" fill-rule="nonzero"/></g></g></g></g></g></g><g clip-path="url(#0e65d4b817)"><g transform="matrix(1, 0, 0, 1, 813, 378)"><g clip-path="url(#3752349f88)"><g clip-path="url(#2ed7f269a3)"><path fill="#555555" d="M 0.523438 0.859375 L 50.113281 0.859375 L 50.113281 73.308594 L 0.523438 73.308594 Z M 0.523438 0.859375 " fill-opacity="1" fill-rule="nonzero"/></g></g></g></g><g clip-path="url(#f069439468)"><g clip-path="url(#7d4a5c6369)"><g transform="matrix(1, 0, 0, 1, 822, 206)"><g clip-path="url(#60538d9d28)"><g clip-path="url(#23df85eaa2)"><g clip-path="url(#9755899750)"><path fill="#00b6eb" d="M 0.00390625 0.242188 L 75.089844 0.242188 L 75.089844 108.464844 L 0.00390625 108.464844 Z M 0.00390625 0.242188 " fill-opacity="1" fill-rule="nonzero"/></g></g></g></g></g></g><g clip-path="url(#cc052ef62a)"><g transform="matrix(1, 0, 0, 1, 875, 378)"><g clip-path="url(#587830a966)"><g clip-path="url(#5ac01b9ed9)"><path fill="#555555" d="M 0.0117188 0.859375 L 52.605469 0.859375 L 52.605469 73.378906 L 0.0117188 73.378906 Z M 0.0117188 0.859375 " fill-opacity="1" fill-rule="nonzero"/></g></g></g></g><g clip-path="url(#7fc882173b)"><g clip-path="url(#400421548b)"><g transform="matrix(1, 0, 0, 1, 944, 378)"><g clip-path="url(#12c39e2de6)"><g clip-path="url(#7daa027958)"><g clip-path="url(#cab4979534)"><path fill="#555555" d="M 0.371094 0.859375 L 62.695312 0.859375 L 62.695312 73.40625 L 0.371094 73.40625 Z M 0.371094 0.859375 " fill-opacity="1" fill-rule="nonzero"/></g></g></g></g></g></g><g clip-path="url(#54bf5ea96a)"><g clip-path="url(#eeace378fe)"><g transform="matrix(1, 0, 0, 1, 980, 208)"><g clip-path="url(#87304b269a)"><g clip-path="url(#5475b9ff7f)"><g clip-path="url(#fc83de174c)"><path fill="#00b6eb" d="M 0.519531 0.328125 L 94.894531 0.328125 L 94.894531 106.867188 L 0.519531 106.867188 Z M 0.519531 0.328125 " fill-opacity="1" fill-rule="nonzero"/></g></g></g></g></g></g><g clip-path="url(#db212186cb)"><g clip-path="url(#cd89f3d52e)"><g transform="matrix(1, 0, 0, 1, 1028, 378)"><g clip-path="url(#740015f6d6)"><g clip-path="url(#edb3a1d779)"><g clip-path="url(#bc691ef773)"><path fill="#555555" d="M 0.429688 0.859375 L 70.105469 0.859375 L 70.105469 73.253906 L 0.429688 73.253906 Z M 0.429688 0.859375 " fill-opacity="1" fill-rule="nonzero"/></g></g></g></g></g></g><g clip-path="url(#38da8f9cd1)"><g clip-path="url(#99eea87f75)"><g transform="matrix(1, 0, 0, 1, 1113, 358)"><g clip-path="url(#a4690058fd)"><g clip-path="url(#5cae485a44)"><g clip-path="url(#363953c5e1)"><path fill="#555555" d="M 0.0078125 0.878906 L 12.222656 0.878906 L 12.222656 93.316406 L 0.0078125 93.316406 Z M 0.0078125 0.878906 " fill-opacity="1" fill-rule="nonzero"/></g></g></g></g></g></g><g clip-path="url(#b02f32bff6)"><g clip-path="url(#4038e241ea)"><g transform="matrix(1, 0, 0, 1, 1146, 378)"><g clip-path="url(#7628d3b935)"><g clip-path="url(#3fbe77f54b)"><g clip-path="url(#737e811806)"><path fill="#555555" d="M 0.03125 0.859375 L 59.765625 0.859375 L 59.765625 73.425781 L 0.03125 73.425781 Z M 0.03125 0.859375 " fill-opacity="1" fill-rule="nonzero"/></g></g></g></g></g></g><g clip-path="url(#92a748cdc4)"><g clip-path="url(#bc8126e845)"><g transform="matrix(1, 0, 0, 1, 1161, 208)"><g clip-path="url(#5e1d90c380)"><g clip-path="url(#55d1ffbac4)"><g clip-path="url(#27cf23fddb)"><path fill="#00b6eb" d="M 0.828125 0.328125 L 70.847656 0.328125 L 70.847656 103.714844 L 0.828125 103.714844 Z M 0.828125 0.328125 " fill-opacity="1" fill-rule="nonzero"/></g></g></g></g></g></g><g clip-path="url(#c8b0997916)"><g clip-path="url(#e48083847a)"><g transform="matrix(1, 0, 0, 1, 1221, 378)"><g clip-path="url(#011f33d680)"><g clip-path="url(#477c600fca)"><g clip-path="url(#ed7dc9747d)"><path fill="#555555" d="M 0.289062 0.859375 L 77.289062 0.859375 L 77.289062 73.328125 L 0.289062 73.328125 Z M 0.289062 0.859375 " fill-opacity="1" fill-rule="nonzero"/></g></g></g></g></g></g><g clip-path="url(#aeb59c3d72)"><g clip-path="url(#a5f37e7e67)"><g transform="matrix(1, 0, 0, 1, 1297, 208)"><g clip-path="url(#93486b0a4d)"><g clip-path="url(#491edf9de5)"><g clip-path="url(#a3894e8dac)"><path fill="#00b6eb" d="M 0.105469 0.328125 L 105.992188 0.328125 L 105.992188 103.789062 L 0.105469 103.789062 Z M 0.105469 0.328125 " fill-opacity="1" fill-rule="nonzero"/></g></g></g></g></g></g><g clip-path="url(#4a116c2d1a)"><g transform="matrix(1, 0, 0, 1, 1320, 378)"><g clip-path="url(#f601b1045e)"><g clip-path="url(#5b8495be1e)"><path fill="#555555" d="M 0.152344 0.859375 L 52.742188 0.859375 L 52.742188 73.378906 L 0.152344 73.378906 Z M 0.152344 0.859375 " fill-opacity="1" fill-rule="nonzero"/></g></g></g></g></g></g></svg>